<svg xmlns="http://www.w3.org/2000/svg" xmlns:xlink="http://www.w3.org/1999/xlink" width="500" zoomAndPan="magnify" viewBox="0 0 375 374.999991" height="500" preserveAspectRatio="xMidYMid meet" version="1.0"><defs><g/><clipPath id="id1"><path d="M 114.398438 34 L 260.648438 34 L 260.648438 249.824219 L 114.398438 249.824219 Z M 114.398438 34 " clip-rule="nonzero"/></clipPath></defs><rect x="-37.5" width="450" fill="rgb(100%, 100%, 100%)" y="-37.499999" height="449.999989" fill-opacity="1"/><rect x="-37.5" width="450" fill="rgb(12.548828%, 66.668701%, 84.709167%)" y="-37.499999" height="449.999989" fill-opacity="1"/><rect x="-37.5" width="450" fill="rgb(100%, 100%, 100%)" y="-37.499999" height="449.999989" fill-opacity="1"/><rect x="-37.5" width="450" fill="rgb(12.548828%, 66.668701%, 84.709167%)" y="-37.499999" height="449.999989" fill-opacity="1"/><path fill="rgb(57.249451%, 0.389099%, 4.708862%)" d="M 253.042969 131.125 C 248.914062 126.996094 242.191406 126.996094 238.058594 131.125 C 233.925781 135.253906 233.925781 141.964844 238.058594 146.09375 C 242.191406 150.222656 248.914062 150.222656 253.042969 146.09375 C 257.175781 141.964844 257.175781 135.253906 253.042969 131.125 Z M 253.042969 131.125 " fill-opacity="1" fill-rule="evenodd"/><path fill="rgb(57.249451%, 0.389099%, 4.708862%)" d="M 122 152.527344 C 126.132812 156.65625 132.851562 156.65625 136.984375 152.527344 C 141.117188 148.394531 141.117188 141.683594 136.984375 137.554688 C 132.851562 133.425781 126.132812 133.425781 122 137.554688 C 117.867188 141.683594 117.867188 148.394531 122 152.527344 Z M 122 152.527344 " fill-opacity="1" fill-rule="evenodd"/><g clip-path="url(#id1)"><path fill="rgb(21.569824%, 20.388794%, 20.779419%)" d="M 196.386719 173.234375 L 158.59375 135.472656 L 158.46875 135.347656 C 135.40625 112.308594 135.40625 74.640625 158.46875 51.601562 C 181.527344 28.558594 219.226562 28.558594 242.289062 51.601562 L 243.359375 52.671875 C 259.226562 68.527344 264.179688 91.316406 258.1875 111.519531 L 257.652344 112.054688 L 209.824219 64.300781 L 197.964844 76.152344 C 202.097656 80.28125 202.097656 86.996094 197.964844 91.125 C 193.832031 95.253906 187.113281 95.253906 182.980469 91.125 L 171.117188 102.976562 L 178.625 110.480469 L 214.808594 146.632812 L 216.578125 148.394531 C 239.636719 171.4375 239.636719 209.101562 216.578125 232.144531 C 193.515625 255.183594 155.816406 255.183594 132.757812 232.144531 L 131.683594 231.070312 C 115.816406 215.21875 110.863281 192.429688 116.859375 172.226562 L 117.394531 171.6875 L 165.21875 219.472656 L 177.082031 207.621094 C 172.949219 203.492188 172.949219 196.777344 177.082031 192.648438 C 181.214844 188.519531 187.933594 188.519531 192.066406 192.648438 L 203.925781 180.796875 L 196.417969 173.296875 Z M 196.386719 173.234375 " fill-opacity="1" fill-rule="evenodd"/></g><path fill="rgb(57.249451%, 0.389099%, 4.708862%)" d="M 164.523438 180.042969 C 168.65625 175.914062 168.65625 169.199219 164.523438 165.070312 C 160.390625 160.941406 153.671875 160.941406 149.539062 165.070312 C 145.40625 169.199219 145.40625 175.914062 149.539062 180.042969 C 153.671875 184.171875 160.390625 184.171875 164.523438 180.042969 Z M 164.523438 180.042969 " fill-opacity="1" fill-rule="evenodd"/><path fill="rgb(57.249451%, 0.389099%, 4.708862%)" d="M 210.519531 103.605469 C 206.386719 107.738281 206.386719 114.449219 210.519531 118.578125 C 214.652344 122.707031 221.371094 122.707031 225.503906 118.578125 C 229.636719 114.449219 229.636719 107.738281 225.503906 103.605469 C 221.371094 99.476562 214.652344 99.476562 210.519531 103.605469 Z M 210.519531 103.605469 " fill-opacity="1" fill-rule="evenodd"/><g fill="rgb(100%, 100%, 100%)" fill-opacity="1"><g transform="translate(74.757801, 326.621595)"><g><path d="M 27.75 -14.265625 L 27.75 -23.09375 C 27.75 -24.507812 26.941406 -25.21875 25.328125 -25.21875 L 16 -25.21875 C 11.21875 -25.21875 7.835938 -26.269531 5.859375 -28.375 C 3.890625 -30.476562 2.90625 -33.503906 2.90625 -37.453125 L 2.90625 -50.25 C 2.90625 -58.269531 7.628906 -62.28125 17.078125 -62.28125 L 30.359375 -62.28125 C 39.804688 -62.28125 44.53125 -58.269531 44.53125 -50.25 L 44.53125 -42.78125 L 27.546875 -42.78125 L 27.546875 -48.015625 C 27.546875 -49.441406 26.738281 -50.15625 25.125 -50.15625 L 22.3125 -50.15625 C 20.695312 -50.15625 19.890625 -49.441406 19.890625 -48.015625 L 19.890625 -38.8125 C 19.890625 -37.382812 20.695312 -36.671875 22.3125 -36.671875 L 31.4375 -36.671875 C 36.21875 -36.671875 39.625 -35.664062 41.65625 -33.65625 C 43.695312 -31.65625 44.71875 -28.71875 44.71875 -24.84375 L 44.71875 -12.03125 C 44.71875 -4.007812 40 0 30.5625 0 L 17.359375 0 C 7.859375 0 3.109375 -4.007812 3.109375 -12.03125 L 3.109375 -19.5 L 20.078125 -19.5 L 20.078125 -14.265625 C 20.078125 -12.835938 20.882812 -12.125 22.5 -12.125 L 25.328125 -12.125 C 26.941406 -12.125 27.75 -12.835938 27.75 -14.265625 Z M 27.75 -14.265625 "/></g></g></g><g fill="rgb(100%, 100%, 100%)" fill-opacity="1"><g transform="translate(120.453905, 326.621595)"><g><path d="M 26.390625 -48.40625 L 42.59375 -48.40625 L 42.59375 0 L 26.09375 0 L 26.09375 -5.234375 C 24.863281 -1.742188 22.019531 0 17.5625 0 L 15.8125 0 C 7.207031 0 2.90625 -4.007812 2.90625 -12.03125 L 2.90625 -36.375 C 2.90625 -44.394531 7.207031 -48.40625 15.8125 -48.40625 L 17.5625 -48.40625 C 22.539062 -48.40625 25.484375 -46.335938 26.390625 -42.203125 Z M 21.828125 -12.125 L 23.484375 -12.125 C 25.222656 -12.125 26.09375 -13.09375 26.09375 -15.03125 L 26.09375 -33.375 C 26.09375 -35.3125 25.222656 -36.28125 23.484375 -36.28125 L 21.828125 -36.28125 C 20.210938 -36.28125 19.40625 -35.570312 19.40625 -34.15625 L 19.40625 -14.265625 C 19.40625 -12.835938 20.210938 -12.125 21.828125 -12.125 Z M 21.828125 -12.125 "/></g></g></g><g fill="rgb(100%, 100%, 100%)" fill-opacity="1"><g transform="translate(164.985778, 326.621595)"><g><path d="M 20.375 0 L 3.875 0 L 3.875 -64.90625 L 20.375 -64.90625 L 20.375 -26.390625 L 29.5 -48.40625 L 46.5625 -48.40625 L 36.1875 -24.546875 L 46.5625 0 L 29.390625 0 L 20.375 -22.609375 Z M 20.375 0 "/></g></g></g><g fill="rgb(100%, 100%, 100%)" fill-opacity="1"><g transform="translate(209.129569, 326.621595)"><g><path d="M 3.59375 -53.265625 L 3.59375 -64.90625 L 20.671875 -64.90625 L 20.671875 -53.265625 Z M 20.375 0 L 3.875 0 L 3.875 -48.40625 L 20.375 -48.40625 Z M 20.375 0 "/></g></g></g><g fill="rgb(100%, 100%, 100%)" fill-opacity="1"><g transform="translate(231.443956, 326.621595)"><g><path d="M 20.375 0 L 3.875 0 L 3.875 -64.90625 L 20.375 -64.90625 Z M 20.375 0 "/></g></g></g><g fill="rgb(100%, 100%, 100%)" fill-opacity="1"><g transform="translate(253.758343, 326.621595)"><g><path d="M 26.390625 -48.40625 L 42.59375 -48.40625 L 42.59375 0 L 26.09375 0 L 26.09375 -5.234375 C 24.863281 -1.742188 22.019531 0 17.5625 0 L 15.8125 0 C 7.207031 0 2.90625 -4.007812 2.90625 -12.03125 L 2.90625 -36.375 C 2.90625 -44.394531 7.207031 -48.40625 15.8125 -48.40625 L 17.5625 -48.40625 C 22.539062 -48.40625 25.484375 -46.335938 26.390625 -42.203125 Z M 21.828125 -12.125 L 23.484375 -12.125 C 25.222656 -12.125 26.09375 -13.09375 26.09375 -15.03125 L 26.09375 -33.375 C 26.09375 -35.3125 25.222656 -36.28125 23.484375 -36.28125 L 21.828125 -36.28125 C 20.210938 -36.28125 19.40625 -35.570312 19.40625 -34.15625 L 19.40625 -14.265625 C 19.40625 -12.835938 20.210938 -12.125 21.828125 -12.125 Z M 21.828125 -12.125 "/></g></g></g></svg>